<svg width="120" height="120" viewBox="0 0 120 120" fill="none" xmlns="http://www.w3.org/2000/svg">
<path fill-rule="evenodd" clip-rule="evenodd" d="M11 9V89H113V9H11ZM10 4C7.79086 4 6 5.79086 6 8V90C6 92.2091 7.79086 94 10 94H45V95V104L32 104V109L45 109H50H74H79L92 109L92 104L79 104V95V94H114C116.209 94 118 92.2091 118 90V8C118 5.79086 116.209 4 114 4H10ZM74 104V95H50V104H74Z" fill="#026371"/>
<path fill-rule="evenodd" clip-rule="evenodd" d="M28 51H22C21.4477 51 21 51.4477 21 52V79C21 79.5523 21.4477 80 22 80H28C28.5523 80 29 79.5523 29 79V52C29 51.4477 28.5523 51 28 51ZM22 48C19.7909 48 18 49.7909 18 52V79C18 81.2091 19.7909 83 22 83H28C30.2091 83 32 81.2091 32 79V77.3811L53.793 80.98L53.8129 80.9833L53.8329 80.986C54.7567 81.1131 56.166 81.3039 57.392 81.4631C58.0044 81.5426 58.5753 81.6147 59.0184 81.6672C59.3994 81.7124 59.8219 81.7609 60.0271 81.7609C60.656 81.7609 61.7361 81.7327 64.1835 80.9243C66.0064 80.3223 82.0973 75.362 89.9476 72.9471C91.0545 72.6204 92.8029 72.0426 94.2555 71.5534C94.9882 71.3066 95.6531 71.0798 96.1348 70.9148C96.3757 70.8322 96.5709 70.7651 96.7061 70.7185L96.8619 70.6647L96.9027 70.6506L96.9132 70.647L96.9159 70.6461L96.9166 70.6458L96.9168 70.6457L96.4261 69.2283L96.9169 70.6457L97.0067 70.6146L97.092 70.5724L96.4261 69.2283C97.092 70.5724 97.0924 70.5721 97.0929 70.5719L97.0939 70.5714L97.096 70.5704L97.101 70.5679L97.1135 70.5616L97.1484 70.5435C97.1759 70.5291 97.2118 70.5098 97.2547 70.4858C97.3402 70.4381 97.4554 70.3706 97.588 70.2845C97.8459 70.1173 98.2045 69.8575 98.54 69.5112C98.8667 69.174 99.2522 68.6721 99.4296 68.0131C99.6166 67.318 99.5383 66.5664 99.1321 65.8573C98.6776 64.921 98.4035 64.4029 98.2009 64.0348C98.137 63.9187 98.0852 63.8262 98.0407 63.7466L98.0397 63.7449L98.0395 63.7445C97.9333 63.5549 97.868 63.4382 97.776 63.2482L97.7455 63.1852L97.7092 63.1252L97.6945 63.101C97.5468 62.857 97.3754 62.5737 97.0998 62.2551C96.8264 61.9391 96.4826 61.6232 95.9989 61.2238C95.7159 60.9901 95.4036 60.8786 95.23 60.824C95.0249 60.7595 94.8109 60.7146 94.6153 60.6815C94.2225 60.6151 93.7765 60.5754 93.3634 60.5503C92.5357 60.5 91.6936 60.5 91.3642 60.5H91.3579C91.2459 60.5 90.858 60.5254 90.3649 60.5577L90.2215 60.5671L90.0951 60.5754C89.4919 60.6148 88.6796 60.668 87.7077 60.7288C85.6245 60.8593 82.8109 61.0253 79.7692 61.1674C74.0427 61.4351 67.6256 61.6119 63.7171 61.3331C63.747 60.8782 63.7133 60.443 63.6138 60.029C63.4325 59.2748 63.0552 58.6851 62.6133 58.2366C61.879 57.4913 60.909 57.1089 60.4701 56.9358L60.47 56.9358C60.4231 56.9173 60.3822 56.9012 60.3484 56.8873L60.3476 56.887L60.3268 56.8782L60.2499 56.8461C60.1832 56.8184 60.086 56.7784 59.9611 56.7278C59.7114 56.6265 59.3505 56.4826 58.9001 56.3096C57.9999 55.9641 56.738 55.501 55.288 55.0301C52.4242 54.1 48.6905 53.0934 45.5473 52.9685C44.9694 52.9456 44.2476 52.946 43.6867 52.9514C43.4028 52.9541 43.1534 52.9582 42.9749 52.9616C42.8856 52.9633 42.8138 52.9649 42.764 52.966L42.7246 52.9669L42.6977 52.9662C42.6559 52.9652 42.5956 52.9638 42.5207 52.9623C42.371 52.9592 42.162 52.9555 41.924 52.953C41.4554 52.9481 40.8464 52.9477 40.3553 52.9687C38.4228 53.0517 36.1062 53.5623 34.3393 54.024C33.4416 54.2586 32.6581 54.4881 32.0984 54.6591C32.0648 54.6694 32.032 54.6794 32 54.6893V52C32 49.7909 30.2091 48 28 48H22ZM32 57.8318V74.3405L54.2618 78.0168C55.1813 78.1432 56.5711 78.3313 57.7782 78.488C58.3868 78.567 58.9448 78.6375 59.3713 78.6881C59.6949 78.7264 59.8866 78.7459 59.9732 78.7547L59.9735 78.7547L59.9738 78.7548L59.9739 78.7548L59.9742 78.7548C60.0176 78.7592 60.0341 78.7609 60.0271 78.7609L60.0592 78.761C60.3741 78.762 61.1573 78.7644 63.2426 78.0757C65.105 77.4606 81.2558 72.4821 89.0738 70.0772L89.0822 70.0746L89.0906 70.0721C90.1343 69.7644 91.8363 69.2026 93.298 68.7103C94.0244 68.4656 94.6841 68.2406 95.1623 68.0768C95.4014 67.9949 95.5949 67.9283 95.7285 67.8822L95.8202 67.8506C95.8556 67.8302 95.902 67.8023 95.9553 67.7678C96.1005 67.6735 96.2602 67.5529 96.3855 67.4236C96.4384 67.369 96.4732 67.3252 96.4956 67.2933L96.4889 67.2823L96.4584 67.2192C96.007 66.2875 95.7502 65.8038 95.5728 65.4816C95.5322 65.4078 95.4924 65.3367 95.4529 65.2661C95.3399 65.0644 95.2292 64.8666 95.1085 64.6223C94.9778 64.4075 94.9224 64.3235 94.8309 64.2178C94.7339 64.1057 94.5731 63.9448 94.2398 63.6632C94.207 63.6561 94.1656 63.6481 94.115 63.6395C93.8753 63.599 93.5508 63.5673 93.1814 63.5448C92.4495 63.5003 91.6845 63.5 91.3578 63.5C91.3593 63.5 91.3495 63.5007 91.3278 63.5021C91.3073 63.5034 91.2761 63.5054 91.2336 63.5081C91.093 63.517 90.8285 63.5338 90.4172 63.5607L90.2908 63.569C89.6876 63.6084 88.8715 63.6618 87.8952 63.723C85.8029 63.854 82.9723 64.021 79.9092 64.1641C73.8392 64.4478 66.7213 64.6457 62.674 64.2565C62.4441 64.5619 62.1828 64.828 61.8945 65.0553C61.1562 65.6371 60.3358 65.8902 59.6299 65.9873C58.9275 66.084 58.2872 66.0341 57.837 65.9672C57.6078 65.9331 57.4171 65.893 57.2787 65.8599C57.2219 65.8464 57.1735 65.8339 57.1343 65.8233L57.1108 65.8192L56.8256 65.7695L55.7767 65.5867C54.8908 65.432 53.6664 65.218 52.3122 64.9801C49.6057 64.5046 46.3752 63.933 44.2956 63.5514C43.4808 63.4019 42.9414 62.6202 43.0909 61.8053C43.2404 60.9905 44.0222 60.4512 44.837 60.6007C46.9041 60.98 50.1241 61.5497 52.8313 62.0253C54.1841 62.263 55.4074 62.4769 56.2925 62.6313L57.3403 62.814L57.625 62.8636L57.699 62.8765L57.7178 62.8797L57.7225 62.8806L57.7237 62.8808L57.724 62.8808L57.4672 64.3587L57.7241 62.8808L57.8189 62.8973L57.9027 62.9233L57.9084 62.9248C57.9199 62.928 57.943 62.9342 57.9761 62.9421C58.0428 62.9581 58.1473 62.9804 58.2781 62.9998C58.5478 63.0399 58.8866 63.0613 59.2209 63.0153C59.5516 62.9698 59.8255 62.8662 60.0375 62.6991C60.2337 62.5444 60.471 62.2629 60.6262 61.6862C60.7593 61.1917 60.7363 60.8943 60.6968 60.7301C60.6593 60.5737 60.5873 60.4548 60.4763 60.3422C60.2122 60.0741 59.8453 59.9236 59.3438 59.7179L59.1985 59.6582L59.1857 59.6529L59.1857 59.6528L59.1854 59.6527L59.182 59.6513L59.1663 59.6447L59.0998 59.6169C59.0402 59.5922 58.9506 59.5553 58.8335 59.5078C58.5994 59.4128 58.2561 59.2759 57.8248 59.1103C56.9616 58.7789 55.7504 58.3345 54.3614 57.8834C51.5471 56.9694 48.1393 56.0739 45.4282 55.9662C44.9279 55.9463 44.2674 55.9459 43.7156 55.9512C43.4432 55.9538 43.2036 55.9578 43.0323 55.9611C42.9467 55.9627 42.8784 55.9642 42.8317 55.9652L42.7786 55.9665L42.7653 55.9668L42.7621 55.9669L42.7615 55.9669L42.7614 55.9669L42.7614 55.9669L42.7218 55.9679L42.6822 55.9668L42.6822 55.9668L42.6822 55.9668L42.6817 55.9668L42.6792 55.9667L42.6684 55.9664L42.6246 55.9653C42.5861 55.9644 42.5296 55.9631 42.4587 55.9616C42.3168 55.9587 42.1183 55.9552 41.8928 55.9528C41.4341 55.948 40.8912 55.9485 40.4839 55.966C38.886 56.0346 36.8255 56.475 35.0978 56.9265C34.2483 57.1485 33.5052 57.3662 32.9751 57.5282C32.7103 57.609 32.4995 57.6758 32.3561 57.722C32.2844 57.745 32.2295 57.7629 32.1933 57.7748L32.1531 57.7881L32.1438 57.7912L32.142 57.7918L32.142 57.7918L32.1418 57.7919C32.0947 57.8076 32.0474 57.8209 32 57.8318ZM26.4505 76.3696C26.4505 77.198 25.7789 77.8696 24.9505 77.8696C24.122 77.8696 23.4505 77.198 23.4505 76.3696C23.4505 75.5411 24.122 74.8696 24.9505 74.8696C25.7789 74.8696 26.4505 75.5411 26.4505 76.3696ZM94.3298 63.6858C94.3499 63.6921 94.3472 63.6928 94.3281 63.6852L94.3298 63.6858Z" fill="#026371"/>
<path fill-rule="evenodd" clip-rule="evenodd" d="M80.8332 36.618L83 35.9916V33.7361V31H87V33.7361V35.9916L89.1668 36.618C90.181 36.9113 91.1513 37.3091 92.0653 37.7996L94.0292 38.8534L95.6051 37.2775L97.6399 35.2426L100.468 38.0711L98.517 40.0225L96.9016 41.6378L98.0292 43.6245C98.5989 44.6283 99.0554 45.7035 99.382 46.8332L100.008 49H102.264H105V53H102.264H100.008L99.382 55.1668C99.0732 56.2347 98.6484 57.2539 98.1216 58.2102L97.8426 58.7166C98.9369 58.8454 99.9971 58.99 101.019 59.1494C101.528 58.15 101.947 57.0966 102.264 56H106C107.105 56 108 55.1046 108 54V48C108 46.8954 107.105 46 106 46H102.264C101.871 44.6415 101.322 43.3492 100.638 42.1438L103.297 39.4853C104.078 38.7042 104.078 37.4379 103.297 36.6569L99.0541 32.4142C98.2731 31.6332 97.0068 31.6332 96.2257 32.4142L93.4838 35.1561C92.3859 34.567 91.2196 34.0887 90 33.7361V30C90 28.8954 89.1046 28 88 28H82C80.8954 28 80 28.8954 80 30V33.7361C78.8177 34.0779 77.6856 34.5379 76.6172 35.1024L73.9082 32.3933C73.1271 31.6123 71.8608 31.6123 71.0798 32.3933L66.8371 36.636C66.0561 37.417 66.0561 38.6834 66.8371 39.4644L69.418 42.0453C68.7077 43.2787 68.1395 44.6044 67.7361 46H64C62.8954 46 62 46.8954 62 48V54C62 55.1046 62.8954 56 64 56H67.7361C68.0531 57.0966 68.4718 58.15 68.9813 59.1494C70.0027 58.99 71.0626 58.8454 72.1567 58.7167L71.8699 58.1948C71.3471 57.243 70.9251 56.229 70.618 55.1668L69.9916 53H67.7361H65V49H67.7361H69.9916L70.618 46.8332C70.9535 45.6727 71.4261 44.5697 72.0177 43.5425L73.1653 41.5499L71.5393 39.924L69.6655 38.0502L72.494 35.2218L74.4959 37.2237L76.0613 38.7891L78.0188 37.7548C78.9082 37.2849 79.85 36.9023 80.8332 36.618ZM94.4633 58.3796C96.0528 56.3442 97 53.7827 97 51C97 44.3726 91.6274 39 85 39C78.3726 39 73 44.3726 73 51C73 53.7827 73.9472 56.3442 75.5367 58.3796C76.8237 58.2733 78.1472 58.188 79.5013 58.1255C77.3715 56.4795 76 53.8999 76 51C76 46.0294 80.0294 42 85 42C89.9706 42 94 46.0294 94 51C94 53.8999 92.6285 56.4795 90.4987 58.1255C91.8528 58.188 93.1763 58.2733 94.4633 58.3796ZM81.5593 73.9513C81.7011 73.9832 81.8486 74 82 74H85H88C88.1514 74 88.2989 73.9832 88.4407 73.9513C87.311 73.9835 86.163 74 85 74C83.837 74 82.689 73.9835 81.5593 73.9513Z" fill="#026371"/>
</svg>
