<svg width="120" height="120" viewBox="0 0 120 120" fill="none" xmlns="http://www.w3.org/2000/svg">
<g clip-path="url(#clip0_308_2032)">
<path fill-rule="evenodd" clip-rule="evenodd" d="M63 10H71C73.2091 10 75 11.7909 75 14V15H84C88.4183 15 92 18.5817 92 23V71.3958C90.5393 71.1357 89.0355 71 87.5 71C87.333 71 87.1663 71.0016 87 71.0048V23C87 21.3431 85.6569 20 84 20H75V22C75 24.2091 73.2091 26 71 26H38C35.7909 26 34 24.2091 34 22V20H25C23.3431 20 22 21.3431 22 23V101C22 102.657 23.3431 104 25 104H63.1208C63.66 105.755 64.3835 107.429 65.2687 109H25C20.5817 109 17 105.418 17 101V23C17 18.5817 20.5817 15 25 15H34V14C34 11.7909 35.7909 10 38 10H43C43 4.47715 47.4772 0 53 0C58.5229 0 63 4.47715 63 10ZM74.5 73C75.1452 73 75.7332 73.2444 76.1767 73.6456C73.8843 74.7836 71.7874 76.2564 69.95 78H50.5C49.1193 78 48 76.8807 48 75.5C48 74.1193 49.1193 73 50.5 73H74.5ZM50.5 87H63.8284C63.1883 88.5934 62.7045 90.2664 62.3958 92H50.5C49.1193 92 48 90.8807 48 89.5C48 88.1193 49.1193 87 50.5 87ZM53 15C55.7614 15 58 12.7614 58 10C58 7.23858 55.7614 5 53 5C50.2386 5 48 7.23858 48 10C48 12.7614 50.2386 15 53 15ZM51 32H57V39.5H64.5V45.5H57V53H51V45.5H43.5V39.5H51V32ZM50.5 59C49.1193 59 48 60.1193 48 61.5C48 62.8807 49.1193 64 50.5 64H74.5C75.8807 64 77 62.8807 77 61.5C77 60.1193 75.8807 59 74.5 59H50.5ZM44.6773 55.9295C45.1907 55.2792 45.0797 54.336 44.4295 53.8227C43.7792 53.3093 42.836 53.4203 42.3227 54.0705L35.9922 62.0891L33.1713 58.563C32.6538 57.9161 31.7099 57.8112 31.063 58.3287C30.4161 58.8462 30.3112 59.7901 30.8287 60.437L34.8287 65.437C35.1144 65.7942 35.5475 66.0015 36.0048 66C36.4622 65.9985 36.8939 65.7885 37.1773 65.4295L44.6773 55.9295ZM44.4295 67.8227C45.0797 68.336 45.1907 69.2793 44.6773 69.9295L37.1773 79.4295C36.8939 79.7885 36.4622 79.9985 36.0048 80C35.5475 80.0015 35.1144 79.7942 34.8287 79.437L30.8287 74.437C30.3112 73.7901 30.4161 72.8462 31.063 72.3287C31.7099 71.8112 32.6538 71.9161 33.1713 72.563L35.9922 76.0891L42.3227 68.0705C42.836 67.4203 43.7792 67.3093 44.4295 67.8227ZM44.6773 83.9295C45.1907 83.2793 45.0797 82.336 44.4295 81.8227C43.7792 81.3093 42.836 81.4203 42.3227 82.0705L35.9922 90.0891L33.1713 86.563C32.6538 85.9161 31.7099 85.8112 31.063 86.3287C30.4161 86.8462 30.3112 87.7901 30.8287 88.437L34.8287 93.437C35.1144 93.7942 35.5475 94.0015 36.0048 94C36.4622 93.9985 36.8939 93.7885 37.1773 93.4295L44.6773 83.9295Z" fill="#026371"/>
<path fill-rule="evenodd" clip-rule="evenodd" d="M105 96.5C105 106.165 97.165 114 87.5 114C77.835 114 70 106.165 70 96.5C70 86.835 77.835 79 87.5 79C97.165 79 105 86.835 105 96.5ZM110 96.5C110 108.926 99.9264 119 87.5 119C75.0736 119 65 108.926 65 96.5C65 84.0736 75.0736 74 87.5 74C99.9264 74 110 84.0736 110 96.5ZM97.0249 89.9663C97.8347 88.848 97.5846 87.2849 96.4663 86.4751C95.348 85.6653 93.7849 85.9154 92.9751 87.0337L84.3153 98.9925L79.3814 93.3537C78.4722 92.3146 76.8928 92.2094 75.8537 93.1186C74.8146 94.0278 74.7094 95.6072 75.6186 96.6463L82.6186 104.646C83.1198 105.219 83.8547 105.532 84.6151 105.497C85.3754 105.462 86.0784 105.083 86.5249 104.466L97.0249 89.9663Z" fill="#026371"/>
</g>
<defs>
<clipPath id="clip0_308_2032">
<rect width="120" height="120" fill="white"/>
</clipPath>
</defs>
</svg>
