<svg width="120" height="120" viewBox="0 0 120 120" fill="none" xmlns="http://www.w3.org/2000/svg">
<path fill-rule="evenodd" clip-rule="evenodd" d="M47.2426 2.65969C46.7806 1.97679 45.8541 1.79474 45.1681 2.25208L40.6681 5.25208C39.9919 5.70291 39.7977 6.61031 40.2302 7.29841L51.0002 24.4324V57.5002C51.0002 58.3286 51.6717 59.0002 52.5002 59.0002H67.5002C68.3286 59.0002 69.0002 58.3286 69.0002 57.5002V24.4324L79.7701 7.29841C80.2026 6.61031 80.0085 5.70291 79.3322 5.25208L74.8322 2.25208C74.4995 2.03025 74.0919 1.95047 73.7001 2.03047C73.3083 2.11046 72.9646 2.34361 72.7455 2.67811L66.6909 11.9193C66.6673 11.7911 66.6409 11.6637 66.6116 11.537C66.3141 10.2515 65.6966 8.96342 64.5631 7.99854C63.4158 7.022 61.8849 6.50015 60.0002 6.50015C58.0895 6.50015 56.5281 7.06768 55.3475 8.06547C54.2302 9.00986 53.5525 10.2555 53.1928 11.5227C51.2342 8.57761 48.9123 5.12795 47.2426 2.65969ZM54.3289 18.9372C53.967 18.4848 53.6748 17.9495 53.4491 17.3717C52.9496 16.5964 52.2894 15.5902 51.5368 14.453C49.7325 11.7268 47.4222 8.28648 45.5919 5.57509L43.5472 6.93821L53.7701 23.2019C53.9204 23.441 54.0002 23.7177 54.0002 24.0002V56.0002H58.5002V40.0002C58.5002 39.1717 59.1717 38.5002 60.0002 38.5002C60.8286 38.5002 61.5002 39.1717 61.5002 40.0002V56.0002H66.0002V24.0002C66.0002 23.7177 66.0799 23.441 66.2302 23.2019L76.4531 6.93821L74.4262 5.58696L65.7549 18.8222C65.3266 19.4758 64.4683 19.6912 63.7822 19.3172C63.0961 18.9431 62.8121 18.105 63.1294 17.3909C63.6947 16.1191 64.0916 13.9542 63.6888 12.2133C63.4945 11.3738 63.1371 10.7244 62.6185 10.283C62.1137 9.8533 61.3154 9.50015 60.0002 9.50015C58.7109 9.50015 57.8598 9.87012 57.2841 10.3567C56.6918 10.8573 56.2786 11.5779 56.0509 12.444C55.8223 13.3136 55.7982 14.2718 55.94 15.1417C55.9936 15.4702 56.0677 15.7687 56.1546 16.0328C56.2825 16.2326 56.3983 16.4151 56.5006 16.5781C56.737 16.9551 56.9688 17.333 57.0724 17.5593C57.0896 17.5969 57.121 17.6678 57.1496 17.7556C57.1637 17.7993 57.1865 17.8752 57.2034 17.9711C57.2163 18.0441 57.2494 18.2513 57.2018 18.5103C57.1499 18.7927 56.9484 19.3453 56.3238 19.6178C55.7974 19.8474 55.3424 19.7014 55.209 19.6532C54.9329 19.5535 54.7489 19.3909 54.7215 19.3667L54.7188 19.3644C54.5627 19.2295 54.4111 19.0401 54.333 18.9423L54.3289 18.9372Z" fill="#026371"/>
<path fill-rule="evenodd" clip-rule="evenodd" d="M17.5319 57.9669C17.071 59.6133 17.6904 61.4254 18.8589 62.2701C18.8881 62.2905 18.9165 62.3119 18.9441 62.3343C19.1106 62.4689 19.2413 62.6329 19.334 62.8134C19.5141 63.1641 19.551 63.5771 19.4288 63.9579C19.3715 64.137 19.2814 64.3014 19.1657 64.4441C19.031 64.6107 18.867 64.7414 18.6864 64.8341C18.4688 64.9458 18.2271 65.0024 17.9841 65C17.2672 65.0041 16.8331 65.2838 16.5349 65.6202C16.2341 65.9593 16.0655 66.3724 16 66.6469V92H27.5C28.6912 92 30.478 92.2875 32.0217 93.2138C33.6438 94.187 35 95.8863 35 98.5V98.5235V98.5471V98.5707V98.5945V98.6183V98.6423V98.6663V98.6904V98.7146V98.7389V98.7633V98.7877V98.8123V98.8369V98.8616V98.8865V98.9114V98.9363V98.9614V98.9866V99.0118V99.0371V99.0625V99.088V99.1136V99.1392V99.1649V99.1908V99.2166V99.2426V99.2687V99.2948V99.321V99.3473V99.3737V99.4001V99.4266V99.4533V99.4799V99.5067V99.5335V99.5604V99.5874V99.6145V99.6416V99.6688V99.6961V99.7235V99.7509V99.7784V99.806V99.8336V99.8613V99.8891V99.917V99.9449V99.9729V100.001V100.029V100.057V100.086V100.114V100.142V100.171V100.199V100.228V100.257V100.286V100.314V100.343V100.372V100.401V100.43V100.459V100.489V100.518V100.547V100.577V100.606V100.636V100.665V100.695V100.724V100.754V100.784V100.814V100.844V100.874V100.904V100.934V100.964V100.994V101.025V101.055V101.085V101.116V101.146V101.177V101.208V101.238V101.269V101.3V101.331V101.361V101.392V101.423V101.454V101.485V101.517V101.548V101.579V101.61V101.642V101.673V101.704V101.736V101.767V101.799V101.831V101.862V101.894V101.926V101.958V101.989V102.021V102.053V102.085V102.117V102.149V102.181V102.214V102.246V102.278V102.31V102.343V102.375V102.407V102.44V102.472V102.505V102.537V102.57V102.602V102.635V102.668V102.701V102.733V102.766V102.799V102.832V102.865V102.898V102.931V102.964V102.997V103.03V103.063V103.096V103.129V103.162V103.196V103.229V103.262V103.296V103.329V103.362V103.396V103.429V103.463V103.496V103.53V103.563V103.597V103.63V103.664V103.698V103.731V103.765V103.799V103.833V103.866V103.9V103.934V103.968V104.002V104.036V104.069V104.103V104.137V104.171V104.205V104.239V104.273V104.307V104.341V104.375V104.41V104.444V104.478V104.512V104.546V104.58V104.614V104.649V104.683V104.717V104.751V104.786V104.82V104.854V104.888V104.923V104.957V104.991V105.026V105.06V105.094V105.129V105.163V105.197V105.232V105.266V105.301V105.335V105.369V105.404V105.438V105.473V105.507V105.542V105.576V105.611V105.645V105.679V105.714V105.748V105.783V105.817V105.852V105.886V105.921V105.955V105.99V106.024V106.059V106.093V106.127V106.162V106.196V106.231V106.265V106.3V106.334V106.369V106.403V106.438V106.472V106.506V106.541V106.575V106.61V106.644V106.678V106.713V106.747V106.781V106.816V106.85V106.884V106.919V106.953V106.987V107.022V107.056V107.09V107.124V107.159V107.193V107.227V107.261V107.295V107.329V107.364V107.398V107.432V107.466V107.5V107.534V107.568V107.602V107.636V107.67V107.704V107.738V107.772V107.806V107.84V107.874V107.907V107.941V107.975V108.009V108.043V108.076V108.11V108.144V108.177V108.211V108.244V108.278V108.312V108.345V108.379V108.412V108.446V108.479V108.512V108.546V108.579V108.612V108.646V108.679V108.712V108.745V108.778V108.811V108.845V108.878V108.911V108.944V108.976V109.009V109.042V109.075V109.108V109.141V109.173V109.206V109.239V109.271V109.304V109.337V109.369V109.401V109.434V109.466V109.499V109.531V109.563V109.595V109.628V109.66V109.692V109.724V109.756V109.788V109.82V109.852V109.884V109.915V109.947V109.979V110.011V110.042V110.074V110.105V110.137V110.168V110.199V110.231V110.262V110.293V110.324V110.356V110.387V110.418V110.449V110.48V110.51V110.541V110.572V110.603V110.633V110.664V110.695V110.725V110.756V110.786V110.816V110.847V110.877V110.907V110.937V110.967V110.997V111.027V111.057V111.087V111.116V111.146V111.176V111.205V111.235V111.264V111.294V111.323V111.352V111.381V111.411V111.44V111.469V111.498V111.526V111.555V111.584V111.613V111.641V111.67V111.698V111.727V111.755V111.783V111.812V111.84V111.868V111.896V111.924V111.952V111.979V112.007V112.035V112.062V112.09V112.117V112.144V112.172V112.199V112.226V112.253V112.28V112.307V112.334V112.361V112.387V112.414V112.44V112.467V112.493V112.5H39V95.6545C38.6823 94.1906 37.8312 92.0188 36.306 90.2201C34.7629 88.4005 32.5725 87 29.5 87C28.6716 87 28 86.3284 28 85.5V66.4742C27.502 65.8682 26.4339 65 25 65C24.3479 65 23.7706 64.5787 23.5716 63.9578C23.3726 63.3368 23.5975 62.6584 24.1281 62.2794C25.4908 61.3061 26.328 59.5512 26.1937 58.0733C26.1301 57.3744 25.8538 56.7404 25.3063 56.2236C24.7612 55.7091 23.8549 55.2256 22.3933 55.0006C20.8 55.0176 19.7 55.4165 18.9634 55.9364C18.2131 56.466 17.7518 57.1818 17.5319 57.9669ZM14.6431 57.1581C14.1236 59.0132 14.3873 61.081 15.343 62.7353C14.9353 62.9909 14.5848 63.2976 14.2901 63.6298C13.5217 64.4965 13.1429 65.5187 13.0204 66.2534C13.0068 66.3349 13 66.4174 13 66.5V67.5H2.5C1.67157 67.5 1 68.1716 1 69V76C1 76.8284 1.67157 77.5 2.5 77.5H7V95.9375C4.23813 98.4095 2.5 102.002 2.5 106C2.5 113.456 8.54416 119.5 16 119.5C23.4558 119.5 29.5 113.456 29.5 106C29.5 101.462 27.2613 97.4476 23.8281 95H27.5C28.3088 95 29.522 95.2125 30.4783 95.7862C31.3562 96.313 32 97.1137 32 98.5V98.5235V98.5471V98.5707V98.5945V98.6183V98.6423V98.6663V98.6904V98.7146V98.7389V98.7633V98.7877V98.8123V98.8369V98.8616V98.8865V98.9114V98.9363V98.9614V98.9866V99.0118V99.0371V99.0625V99.088V99.1136V99.1392V99.1649V99.1908V99.2166V99.2426V99.2687V99.2948V99.321V99.3473V99.3737V99.4001V99.4266V99.4533V99.4799V99.5067V99.5335V99.5604V99.5874V99.6145V99.6416V99.6688V99.6961V99.7235V99.7509V99.7784V99.806V99.8336V99.8613V99.8891V99.917V99.9449V99.9729V100.001V100.029V100.057V100.086V100.114V100.142V100.171V100.199V100.228V100.257V100.286V100.314V100.343V100.372V100.401V100.43V100.459V100.489V100.518V100.547V100.577V100.606V100.636V100.665V100.695V100.724V100.754V100.784V100.814V100.844V100.874V100.904V100.934V100.964V100.994V101.025V101.055V101.085V101.116V101.146V101.177V101.208V101.238V101.269V101.3V101.331V101.361V101.392V101.423V101.454V101.485V101.517V101.548V101.579V101.61V101.642V101.673V101.704V101.736V101.767V101.799V101.831V101.862V101.894V101.926V101.958V101.989V102.021V102.053V102.085V102.117V102.149V102.181V102.214V102.246V102.278V102.31V102.343V102.375V102.407V102.44V102.472V102.505V102.537V102.57V102.602V102.635V102.668V102.701V102.733V102.766V102.799V102.832V102.865V102.898V102.931V102.964V102.997V103.03V103.063V103.096V103.129V103.162V103.196V103.229V103.262V103.296V103.329V103.362V103.396V103.429V103.463V103.496V103.53V103.563V103.597V103.63V103.664V103.698V103.731V103.765V103.799V103.833V103.866V103.9V103.934V103.968V104.002V104.036V104.069V104.103V104.137V104.171V104.205V104.239V104.273V104.307V104.341V104.375V104.41V104.444V104.478V104.512V104.546V104.58V104.614V104.649V104.683V104.717V104.751V104.786V104.82V104.854V104.888V104.923V104.957V104.991V105.026V105.06V105.094V105.129V105.163V105.197V105.232V105.266V105.301V105.335V105.369V105.404V105.438V105.473V105.507V105.542V105.576V105.611V105.645V105.679V105.714V105.748V105.783V105.817V105.852V105.886V105.921V105.955V105.99V106.024V106.059V106.093V106.127V106.162V106.196V106.231V106.265V106.3V106.334V106.369V106.403V106.438V106.472V106.506V106.541V106.575V106.61V106.644V106.678V106.713V106.747V106.781V106.816V106.85V106.884V106.919V106.953V106.987V107.022V107.056V107.09V107.124V107.159V107.193V107.227V107.261V107.295V107.329V107.364V107.398V107.432V107.466V107.5V107.534V107.568V107.602V107.636V107.67V107.704V107.738V107.772V107.806V107.84V107.874V107.907V107.941V107.975V108.009V108.043V108.076V108.11V108.144V108.177V108.211V108.244V108.278V108.312V108.345V108.379V108.412V108.446V108.479V108.512V108.546V108.579V108.612V108.646V108.679V108.712V108.745V108.778V108.811V108.845V108.878V108.911V108.944V108.976V109.009V109.042V109.075V109.108V109.141V109.173V109.206V109.239V109.271V109.304V109.337V109.369V109.401V109.434V109.466V109.499V109.531V109.563V109.595V109.628V109.66V109.692V109.724V109.756V109.788V109.82V109.852V109.884V109.915V109.947V109.979V110.011V110.042V110.074V110.105V110.137V110.168V110.199V110.231V110.262V110.293V110.324V110.356V110.387V110.418V110.449V110.48V110.51V110.541V110.572V110.603V110.633V110.664V110.695V110.725V110.756V110.786V110.816V110.847V110.877V110.907V110.937V110.967V110.997V111.027V111.057V111.087V111.116V111.146V111.176V111.205V111.235V111.264V111.294V111.323V111.352V111.381V111.411V111.44V111.469V111.498V111.526V111.555V111.584V111.613V111.641V111.67V111.698V111.727V111.755V111.783V111.812V111.84V111.868V111.896V111.924V111.952V111.979V112.007V112.035V112.062V112.09V112.117V112.144V112.172V112.199V112.226V112.253V112.28V112.307V112.334V112.361V112.387V112.414V112.44V112.467V112.493V112.519V112.546V112.572V112.598V112.624V112.65V112.675V112.701V112.727V112.752V112.778V112.803V112.829V112.854V112.879V112.904V112.929V112.954V112.979V113.003V113.028V113.053V113.077V113.101V113.126V113.15V113.174V113.198V113.222V113.246V113.269V113.293V113.317V113.34V113.364V113.387V113.41V113.433V113.456V113.479V113.502V113.525V113.547V113.57V113.592V113.615V113.637V113.659V113.681V113.703V113.725V113.747V113.768V113.79V113.811V113.833V113.854V113.875V113.896V113.917V113.938V113.959V113.979V114C32 114.828 32.6716 115.5 33.5 115.5H40.5C41.3284 115.5 42 114.828 42 114V95.5C42 95.4012 41.9902 95.3027 41.9709 95.2058C41.5968 93.3353 40.5528 90.5897 38.594 88.2799C36.8536 86.2274 34.359 84.4917 31 84.0883V66C31 65.7281 30.9261 65.4614 30.7862 65.2283C30.3555 64.5104 29.3566 63.3665 27.861 62.6507C28.8143 61.223 29.335 59.4924 29.1813 57.8017C29.0574 56.4381 28.4899 55.1033 27.3656 54.042C26.2518 52.9907 24.6885 52.2974 22.7121 52.0151C22.6419 52.005 22.571 52 22.5 52C20.3511 52 18.5836 52.5325 17.2335 53.4854C15.8807 54.4402 15.0357 55.7557 14.6431 57.1581ZM13 92.8345V70.5H4V74.5H8.5C9.32843 74.5 10 75.1716 10 76V93.9033C10.9428 93.4348 11.948 93.0732 13 92.8345ZM26.5 106C26.5 111.799 21.799 116.5 16 116.5C10.201 116.5 5.5 111.799 5.5 106C5.5 100.201 10.201 95.5 16 95.5C21.799 95.5 26.5 100.201 26.5 106ZM18.5 106C18.5 107.381 17.3807 108.5 16 108.5C14.6193 108.5 13.5 107.381 13.5 106C13.5 104.619 14.6193 103.5 16 103.5C17.3807 103.5 18.5 104.619 18.5 106ZM21.5 106C21.5 109.038 19.0376 111.5 16 111.5C12.9624 111.5 10.5 109.038 10.5 106C10.5 102.962 12.9624 100.5 16 100.5C19.0376 100.5 21.5 102.962 21.5 106Z" fill="#026371"/>
<path fill-rule="evenodd" clip-rule="evenodd" d="M94.9851 60C92.8683 60.0023 91.1735 60.4921 89.9139 61.4294C88.6375 62.3792 87.955 63.6796 87.6809 65.0098C87.3533 66.5992 87.5907 68.2962 88.1189 69.7264C85.729 70.2047 83.9766 71.3948 82.7609 72.8513C81.2207 74.6967 80.6041 76.8892 80.5033 78.4002C80.5011 78.4334 80.5 78.4667 80.5 78.5V92H78C73.5817 92 70 95.5817 70 100V116V119H73H77H80V116V106V103C80 102.448 80.4477 102 81 102H86.5V116C86.5 116.828 87.1716 117.5 88 117.5H95H102C102.828 117.5 103.5 116.828 103.5 116V102H109C109.552 102 110 102.448 110 103V106V116V119H113H116H119V116V100C119 95.5817 115.418 92 111 92H109.5V78.5C109.5 78.4667 109.499 78.4334 109.497 78.4002C109.391 76.8081 108.602 74.6119 106.944 72.8001C105.649 71.3838 103.831 70.2123 101.434 69.733C101.98 68.387 102.284 66.7989 102.045 65.2684C101.84 63.9573 101.228 62.666 100.017 61.6805C98.8285 60.7126 97.1924 60.1451 95.1153 60.0044C95.0936 60.0027 95.0718 60.0015 95.0499 60.0008C95.0282 60.0001 95.0066 59.9998 94.9851 60ZM86.5 92H83.5V78.5535C83.5762 77.5627 84.0125 76.0335 85.0641 74.7737C86.084 73.5518 87.7459 72.5 90.5 72.5C91.0766 72.5 91.6022 72.1695 91.852 71.6498C92.1017 71.1301 92.0315 70.5132 91.6713 70.063C90.919 69.1226 90.2937 67.1944 90.6191 65.6152C90.77 64.8829 91.1125 64.277 91.7049 63.8362C92.305 63.3896 93.3037 63.0077 94.9501 63.0001C96.5855 63.1164 97.5552 63.5445 98.1233 64.007C98.6785 64.459 98.9728 65.0427 99.0805 65.7316C99.3136 67.2238 98.6301 69.0612 97.8287 70.063C97.4685 70.5132 97.3983 71.1301 97.648 71.6498C97.8978 72.1695 98.4234 72.5 99 72.5C101.763 72.5 103.575 73.5615 104.731 74.8249C105.912 76.1166 106.426 77.6413 106.5 78.5548V92H103.5V80C103.5 79.1716 102.828 78.5 102 78.5C101.172 78.5 100.5 79.1716 100.5 80V92H89.5V80C89.5 79.1716 88.8284 78.5 88 78.5C87.1716 78.5 86.5 79.1716 86.5 80V92ZM89.5 95H100.5H103.5H105H111C113.761 95 116 97.2386 116 100V116H113V103C113 100.791 111.209 99 109 99H105H103.5H100.5H89.5H86.5H85H81C78.7909 99 77 100.791 77 103V116H73V100C73 97.2386 75.2386 95 78 95H85H86.5H89.5ZM96.5 102H100.5V114.5H96.5V102ZM89.5 102H93.5V114.5H89.5V102Z" fill="#026371"/>
<path fill-rule="evenodd" clip-rule="evenodd" d="M34.9367 16.6712C34.1153 16.5633 33.3621 17.1418 33.2542 17.9632C33.1464 18.7845 33.7248 19.5378 34.5462 19.6457L36.7636 19.9368C27.3297 23.5902 20.4935 28.9864 15.5995 35.5153C9.72198 43.3565 6.7228 52.7278 5.28024 62.4324C5.15843 63.2518 5.72396 64.0148 6.54339 64.1366C7.36281 64.2584 8.12583 63.6929 8.24763 62.8735C9.64569 53.4683 12.5199 44.6256 18 37.3147C22.5245 31.2786 28.8781 26.2158 37.8029 22.7513L36.4742 23.9569C35.8606 24.5135 35.8146 25.4622 36.3712 26.0757C36.9279 26.6892 37.8765 26.7353 38.4901 26.1786L44.7959 20.4571C45.2287 20.0644 45.394 19.4561 45.2195 18.8984C45.0451 18.3407 44.5626 17.935 43.9832 17.8589L34.9367 16.6712Z" fill="#026371"/>
<path fill-rule="evenodd" clip-rule="evenodd" d="M84.9811 16.3149C85.8061 16.2389 86.5365 16.846 86.6125 17.6709C86.6885 18.4958 86.0814 19.2262 85.2565 19.3022L83.0295 19.5075C92.3152 23.5225 98.938 29.1787 103.576 35.8918C109.147 43.954 111.782 53.4342 112.848 63.1872C112.938 64.0107 112.344 64.7513 111.52 64.8414C110.697 64.9315 109.956 64.3369 109.866 63.5134C108.832 54.0613 106.302 45.1141 101.108 37.5971C96.8199 31.3908 90.6667 26.0864 81.8823 22.2798L83.1635 23.5358C83.755 24.1157 83.7645 25.0654 83.1845 25.657C82.6046 26.2486 81.6549 26.258 81.0633 25.678L74.9831 19.7172C74.5658 19.3081 74.4241 18.6939 74.62 18.1433C74.8158 17.5928 75.3136 17.2061 75.8955 17.1524L84.9811 16.3149Z" fill="#026371"/>
<path d="M47.0583 111.383C52.4457 113.247 58.9312 113.682 65.5169 112.619" stroke="#026371" stroke-width="3" stroke-linecap="round" stroke-linejoin="round"/>
</svg>
