<svg width="120" height="120" viewBox="0 0 120 120" fill="none" xmlns="http://www.w3.org/2000/svg">
<path fill-rule="evenodd" clip-rule="evenodd" d="M98.12 13.058C97.3234 12.8306 96.4933 13.2921 96.266 14.0888L93.9595 22.1711L92.3388 19.6817C92.0191 19.1906 91.4426 18.9307 90.8629 19.0162C90.2831 19.1017 89.8063 19.517 89.6419 20.0795L86.5234 30.754C86.2911 31.5492 86.7474 32.3821 87.5425 32.6145C88.3377 32.8468 89.1707 32.3905 89.403 31.5953L91.606 24.0547L93.2414 26.5667C93.5621 27.0592 94.1408 27.3191 94.722 27.2316C95.3031 27.144 95.7796 26.7251 95.9409 26.1599L99.1508 14.912C99.3782 14.1154 98.9167 13.2853 98.12 13.058ZM22.7159 13.6194C23.5125 13.3921 24.3426 13.8536 24.57 14.6502L26.8765 22.7325L28.4971 20.2432C28.8169 19.752 29.3933 19.4921 29.9731 19.5776C30.5528 19.6631 31.0297 20.0784 31.194 20.6409L34.3126 31.3154C34.5449 32.1106 34.0886 32.9436 33.2934 33.1759C32.4982 33.4082 31.6653 32.9519 31.433 32.1567L29.23 24.6161L27.5945 27.1281C27.2739 27.6207 26.6951 27.8806 26.114 27.793C25.5328 27.7054 25.0563 27.2865 24.8951 26.7214L21.6851 15.4734C21.4578 14.6768 21.9193 13.8467 22.7159 13.6194ZM14.5012 34.2829C15.1193 33.7312 16.0675 33.785 16.6192 34.403L22.2164 40.6732L22.5906 37.7265C22.6645 37.1451 23.0701 36.66 23.6292 36.4844C24.1883 36.3088 24.7985 36.4749 25.1914 36.9096L32.6488 45.1593C33.2044 45.7739 33.1565 46.7224 32.542 47.278C31.9274 47.8335 30.9789 47.7856 30.4233 47.1711L25.1553 41.3434L24.7776 44.317C24.7036 44.9 24.2958 45.3861 23.7346 45.5604C23.1733 45.7348 22.562 45.5653 22.1706 45.1269L14.3811 36.4008C13.8295 35.7828 13.8832 34.8346 14.5012 34.2829ZM13.3422 56.4387C12.6566 55.9736 11.7238 56.1524 11.2588 56.838C10.7937 57.5236 10.9725 58.4564 11.6581 58.9214L21.3383 65.4875C21.8247 65.8174 22.4589 65.8329 22.9608 65.5271C23.4627 65.2213 23.7398 64.6505 23.6696 64.067L23.3117 61.091L29.8404 65.4601C30.5289 65.9209 31.4606 65.7362 31.9213 65.0477C32.382 64.3593 32.1974 63.4276 31.5089 62.9669L22.2668 56.7819C21.7798 56.456 21.1476 56.4435 20.6481 56.75C20.1486 57.0565 19.8733 57.6258 19.9433 58.2076L20.298 61.1568L13.3422 56.4387ZM13.0099 82.0375C13.1041 81.2144 13.8478 80.6236 14.6708 80.7178L23.0212 81.6741L21.3399 79.2254C21.0082 78.7423 20.9882 78.1102 21.2887 77.6071C21.5892 77.104 22.1552 76.822 22.7378 76.885L33.794 78.0812C34.6176 78.1703 35.2131 78.9102 35.124 79.7338C35.0349 80.5574 34.2949 81.1529 33.4713 81.0638L25.6611 80.2188L27.3578 82.6898C27.6904 83.1744 27.7095 83.8085 27.4065 84.3121C27.1036 84.8157 26.5344 85.096 25.9505 85.0292L14.3295 83.6984C13.5064 83.6041 12.9156 82.8605 13.0099 82.0375ZM19.1354 102.531C18.3366 102.75 17.8668 103.576 18.0862 104.375C18.3056 105.173 19.131 105.643 19.9299 105.424L31.2093 102.326C31.776 102.171 32.1996 101.698 32.293 101.118C32.3864 100.538 32.1322 99.9565 31.6429 99.6309L29.1473 97.9706L36.7095 95.8429C37.507 95.6185 37.9716 94.7901 37.7472 93.9927C37.5228 93.1952 36.6945 92.7306 35.897 92.955L25.1919 95.967C24.6278 96.1257 24.2078 96.5984 24.1165 97.1773C24.0252 97.7561 24.2794 98.3351 24.7673 98.6598L27.2404 100.305L19.1354 102.531ZM104.217 33.8416C104.768 33.2236 105.717 33.1698 106.335 33.7215C106.953 34.2731 107.006 35.2214 106.455 35.8394L98.6654 44.5654C98.274 45.0039 97.6626 45.1734 97.1013 44.999C96.5401 44.8247 96.1324 44.3386 96.0583 43.7555L95.6806 40.782L90.4126 46.6097C89.8571 47.2242 88.9085 47.2721 88.294 46.7165C87.6794 46.161 87.6316 45.2125 88.1871 44.5979L95.6445 36.3482C96.0375 35.9135 96.6476 35.7474 97.2067 35.923C97.7658 36.0986 98.1715 36.5837 98.2453 37.1651L98.6196 40.1118L104.217 33.8416ZM109.577 56.2766C109.112 55.591 108.179 55.4122 107.494 55.8772L100.538 60.5954L100.893 57.6462C100.963 57.0644 100.687 56.4951 100.188 56.1886C99.6884 55.8821 99.0562 55.8946 98.5691 56.2205L89.327 62.4055C88.6385 62.8662 88.4539 63.7978 88.9146 64.4863C89.3754 65.1748 90.307 65.3594 90.9955 64.8987L97.5243 60.5295L97.1663 63.5056C97.0962 64.0891 97.3732 64.6598 97.8751 64.9656C98.377 65.2714 99.0112 65.256 99.4976 64.9261L109.178 58.36C109.863 57.8949 110.042 56.9622 109.577 56.2766ZM106.165 80.1564C106.988 80.0622 107.732 80.653 107.826 81.476C107.92 82.2991 107.329 83.0427 106.506 83.1369L94.8854 84.4677C94.3015 84.5346 93.7323 84.2543 93.4294 83.7507C93.1264 83.2471 93.1455 82.6129 93.4782 82.1284L95.1749 79.6574L87.3646 80.5023C86.541 80.5914 85.8011 79.996 85.712 79.1724C85.6229 78.3488 86.2183 77.6088 87.0419 77.5197L98.0981 76.3236C98.6808 76.2606 99.2467 76.5426 99.5472 77.0457C99.8478 77.5488 99.8278 78.1808 99.4961 78.6639L97.8147 81.1127L106.165 80.1564ZM102.75 103.813C102.969 103.014 102.499 102.189 101.7 101.97L93.5956 99.7437L96.0686 98.0983C96.5565 97.7737 96.8107 97.1947 96.7194 96.6158C96.6282 96.037 96.2081 95.5643 95.644 95.4055L84.9389 92.3936C84.1415 92.1692 83.3131 92.6338 83.0887 93.4312C82.8643 94.2287 83.3289 95.0571 84.1264 95.2814L91.6886 97.4091L89.193 99.0695C88.7037 99.3951 88.4496 99.9764 88.5429 100.557C88.6363 101.137 89.0599 101.609 89.6266 101.765L100.906 104.862C101.705 105.082 102.53 104.612 102.75 103.813ZM67 25.5C67 29.0899 64.0899 32 60.5 32C56.9101 32 54 29.0899 54 25.5C54 21.9102 56.9101 19 60.5 19C64.0899 19 67 21.9102 67 25.5ZM72 25.5C72 26.7204 71.8099 27.8964 71.4577 29H75C79.4183 29 83 32.5817 83 37V66C83 70.4183 79.4183 74 75 74H74.5V106C74.5 107.381 73.3807 108.5 72 108.5H48.5C47.1193 108.5 46 107.381 46 106V74C41.5817 74 38 70.4183 38 66V37C38 32.5817 41.5817 29 46 29H49.5423C49.1901 27.8964 49 26.7204 49 25.5C49 19.1487 54.1487 14 60.5 14C66.8513 14 72 19.1487 72 25.5ZM60.5 37C63.4838 37 66.2023 35.8636 68.2461 34H75C76.6569 34 78 35.3432 78 37V66C78 67.6569 76.6569 69 75 69H74.5V43C74.5 41.6193 73.3807 40.5 72 40.5C70.6193 40.5 69.5 41.6193 69.5 43V103.5H62.5V75C62.5 73.6193 61.3807 72.5 60 72.5C58.6193 72.5 57.5 73.6193 57.5 75V103.5H51V43C51 41.6193 49.8807 40.5 48.5 40.5C47.1193 40.5 46 41.6193 46 43V69C44.3431 69 43 67.6569 43 66V37C43 35.3432 44.3431 34 46 34H52.7539C54.7977 35.8636 57.5162 37 60.5 37Z" fill="#026371"/>
</svg>
