<svg width="120" height="120" viewBox="0 0 120 120" fill="none" xmlns="http://www.w3.org/2000/svg">
<mask id="path-1-inside-1_288_1925" fill="white">
<path d="M82 44C82 35.8601 79.4531 27.9241 74.7161 21.3045C69.9792 14.6848 63.2897 9.7132 55.5853 7.08645C47.8808 4.45969 39.5476 4.30946 31.7534 6.6568C23.9593 9.00413 17.095 13.7314 12.1225 20.176C7.15009 26.6206 4.31875 34.4596 4.02534 42.5942C3.73194 50.7289 5.99118 58.7515 10.4864 65.5376C14.9816 72.3237 21.4876 77.5332 29.0923 80.4359C36.6971 83.3387 45.0195 83.7892 52.8932 81.7243L51.1885 75.2241C44.6715 76.9332 37.7831 76.5603 31.4887 74.1577C25.1944 71.7551 19.8095 67.4433 16.0888 61.8265C12.3681 56.2096 10.4982 49.5694 10.741 42.8365C10.9839 36.1035 13.3273 29.6153 17.443 24.2811C21.5587 18.9469 27.2402 15.0342 33.6913 13.0914C40.1425 11.1485 47.0398 11.2728 53.4167 13.447C59.7936 15.6211 65.3305 19.7361 69.2512 25.2151C73.1719 30.6942 75.28 37.2627 75.28 44H82Z"/>
</mask>
<path d="M82 44C82 35.8601 79.4531 27.9241 74.7161 21.3045C69.9792 14.6848 63.2897 9.7132 55.5853 7.08645C47.8808 4.45969 39.5476 4.30946 31.7534 6.6568C23.9593 9.00413 17.095 13.7314 12.1225 20.176C7.15009 26.6206 4.31875 34.4596 4.02534 42.5942C3.73194 50.7289 5.99118 58.7515 10.4864 65.5376C14.9816 72.3237 21.4876 77.5332 29.0923 80.4359C36.6971 83.3387 45.0195 83.7892 52.8932 81.7243L51.1885 75.2241C44.6715 76.9332 37.7831 76.5603 31.4887 74.1577C25.1944 71.7551 19.8095 67.4433 16.0888 61.8265C12.3681 56.2096 10.4982 49.5694 10.741 42.8365C10.9839 36.1035 13.3273 29.6153 17.443 24.2811C21.5587 18.9469 27.2402 15.0342 33.6913 13.0914C40.1425 11.1485 47.0398 11.2728 53.4167 13.447C59.7936 15.6211 65.3305 19.7361 69.2512 25.2151C73.1719 30.6942 75.28 37.2627 75.28 44H82Z" stroke="#026371" stroke-width="10" mask="url(#path-1-inside-1_288_1925)"/>
<line x1="30.6196" y1="66.9246" x2="30.6196" y2="49.5049" stroke="#026371" stroke-width="5"/>
<line x1="22" y1="56.5" x2="51" y2="56.5" stroke="#026371" stroke-width="5"/>
<line x1="22.0344" y1="47.0049" x2="34.7032" y2="47.0049" stroke="#026371" stroke-width="5"/>
<path d="M30.8688 23.5H56C59.0375 23.5 61.5 25.9624 61.5 29V41.505C61.5 44.5425 59.0375 47.005 56 47.005H30.8688V23.5Z" stroke="#026371" stroke-width="5" stroke-linejoin="round"/>
<path fill-rule="evenodd" clip-rule="evenodd" d="M87.2709 46.064C88.5643 46.2244 89.8305 46.7156 90.8868 47.4199C93.0312 48.8495 97.2281 53.4655 97.7618 60.4972C97.9323 62.7425 97.7656 64.6021 97.4071 66.1051H98.0739H106.956C109.986 66.1051 111.955 67.5853 113.088 69.0627C113.634 69.773 113.983 70.472 114.197 70.991C114.306 71.2536 114.384 71.4791 114.437 71.6496C114.449 71.6888 114.46 71.7254 114.47 71.7589C115.399 74.0823 115.847 76.9484 116.039 79.8354C116.239 82.8224 116.176 86.015 115.997 88.9918C115.639 94.9432 114.805 100.212 114.56 101.596C114.188 103.697 112.634 105.01 111.452 105.734C110.212 106.492 108.856 106.934 107.935 107.126L107.657 107.184L107.373 107.178L85.8681 106.738L85.5481 106.732L85.24 106.645L73.4935 103.329C72.9128 104.821 71.4622 105.879 69.7646 105.879H60C57.7909 105.879 56 104.088 56 101.879V69.4054C56 67.1963 57.7909 65.4054 60 65.4054H69.7646C71.011 65.4054 72.1242 65.9755 72.8578 66.8691C72.9643 66.8294 73.0703 66.7903 73.1747 66.7521C73.5645 66.6095 73.958 66.4713 74.2928 66.3655C74.4511 66.3155 74.6214 66.2648 74.7855 66.2233C74.8915 66.1479 75.0289 66.0462 75.1977 65.9162C75.7103 65.5215 76.3875 64.9632 77.0953 64.3504C77.8012 63.7392 78.5122 63.0959 79.0937 62.5358C79.3848 62.2555 79.6318 62.0071 79.8243 61.8016C79.9202 61.6992 79.996 61.6145 80.0532 61.5473C80.0814 61.5141 80.1028 61.488 80.1181 61.4685L80.1277 61.4563L80.1376 61.4433C80.1353 61.4462 80.1372 61.4422 80.1428 61.4303C80.1673 61.3779 80.2638 61.1723 80.3896 60.7333C80.5306 60.2412 80.6586 59.6377 80.7666 59.0026C80.8734 58.3741 80.9542 57.7536 81.0078 57.2429C81.0345 56.9881 81.0538 56.7676 81.0661 56.5933C81.0722 56.5062 81.0764 56.4347 81.0789 56.379C81.0801 56.3514 81.0809 56.3295 81.0813 56.313L81.0817 56.294L81.0818 56.2889L81.0818 56.2872V56.2872L81.0817 56.2781L81.0812 56.2515C81.0806 56.2282 81.0797 56.1982 81.0783 56.1599C81.0755 56.0824 81.0714 55.9869 81.0662 55.8682L81.0619 55.7728C81.0522 55.5552 81.0403 55.2867 81.0296 54.9906C81.0053 54.3098 80.9865 53.4435 81.0164 52.559C81.0456 51.696 81.1239 50.7091 81.3293 49.8222C81.4323 49.3775 81.5858 48.874 81.8311 48.3933C82.0696 47.9259 82.4778 47.3174 83.1714 46.8823C84.4901 46.055 85.9866 45.9048 87.2709 46.064ZM86.1858 51.016C86.0958 51.4371 86.0373 52.0268 86.0135 52.7282C85.9893 53.4456 86.0039 54.1811 86.0264 54.8116C86.0335 55.0097 86.043 55.2266 86.0521 55.435L86.0521 55.4352C86.0675 55.7876 86.0818 56.1157 86.0818 56.2872C86.0818 56.9274 85.9403 58.4027 85.6958 59.8407C85.5701 60.5804 85.4058 61.3791 85.1962 62.1106C85.0053 62.7768 84.7087 63.6404 84.2193 64.3312C83.8314 64.8789 83.1704 65.5513 82.5623 66.137C81.902 66.773 81.1229 67.477 80.368 68.1306C79.6148 68.7826 78.8603 69.4065 78.248 69.878C77.9468 70.1099 77.6471 70.3304 77.3835 70.5034C77.256 70.5871 77.0918 70.6897 76.914 70.7807C76.8257 70.8259 76.6927 70.8897 76.531 70.9474C76.4414 70.9793 76.2369 71.0492 75.9614 71.0842C75.9237 71.0949 75.8701 71.1108 75.7987 71.1334C75.5676 71.2063 75.2541 71.3155 74.892 71.4479C74.7296 71.5073 74.5624 71.5696 74.3946 71.6328V98.3878L86.2904 101.746L107.159 102.173C107.638 102.046 108.29 101.806 108.842 101.469C109.553 101.034 109.635 100.734 109.637 100.724C109.859 99.4679 110.662 94.3981 111.006 88.6915C111.177 85.8392 111.231 82.8729 111.05 80.1684C110.867 77.426 110.453 75.1292 109.788 73.5192L109.712 73.334L109.672 73.1667C109.67 73.1606 109.668 73.1513 109.664 73.139C109.649 73.0929 109.621 73.0092 109.576 72.9006C109.484 72.6772 109.336 72.3863 109.122 72.1068C108.736 71.6045 108.133 71.1051 106.956 71.1051H98.0739H93.3991H85.9216L91.8525 66.6401L91.8501 66.6415C91.8494 66.6418 91.849 66.6419 91.8488 66.6417C91.8479 66.6407 91.8534 66.6331 91.8645 66.6178C91.9262 66.5331 92.1586 66.2136 92.3875 65.505C92.6903 64.5678 92.9424 63.0656 92.7762 60.8757C92.3749 55.5895 89.1656 52.2817 88.1132 51.5801C87.6695 51.2843 87.1369 51.0857 86.6559 51.0261C86.4644 51.0023 86.309 51.0031 86.1858 51.016ZM76.0149 71.0698C76.0367 71.0643 76.0455 71.0628 76.0431 71.0636C76.0408 71.0644 76.029 71.0673 76.009 71.0713L76.0149 71.0698ZM61 70.4054V100.879H68.7646V70.4054H61ZM64.8823 99.7196C66.1732 99.7196 67.2197 98.7348 67.2197 97.52C67.2197 96.3051 66.1732 95.3203 64.8823 95.3203C63.5913 95.3203 62.5448 96.3051 62.5448 97.52C62.5448 98.7348 63.5913 99.7196 64.8823 99.7196Z" fill="#026371"/>
</svg>
