<svg width="35" height="35" viewBox="0 0 35 35" fill="none" xmlns="http://www.w3.org/2000/svg">
<circle cx="17.0189" cy="17.0189" r="17.0189" fill="white"/>
<path d="M22.9862 19.0078C23.567 19.5711 24.1831 20.1167 24.7112 20.7328C24.94 21.0145 25.1513 21.2961 25.3273 21.613C25.5561 22.0706 25.3449 22.5811 24.94 22.5987H22.3877C21.7364 22.6515 21.2083 22.3875 20.7682 21.9298C20.4162 21.5778 20.0817 21.1905 19.7473 20.8208C19.6065 20.6624 19.4657 20.5216 19.2896 20.416C18.9376 20.1872 18.6383 20.2576 18.4447 20.6272C18.2335 20.9969 18.1983 21.4017 18.1807 21.8242C18.1455 22.4227 17.9694 22.5811 17.3709 22.6163C16.086 22.6691 14.8538 22.4755 13.7096 21.8242C12.7063 21.2433 11.9318 20.4336 11.2453 19.5183C9.92508 17.7404 8.92174 15.7689 8.0064 13.7446C7.79517 13.287 7.9536 13.0405 8.44647 13.0405C9.27379 13.0229 10.1187 13.0229 10.946 13.0405C11.2805 13.0405 11.5093 13.2342 11.6325 13.551C12.0902 14.66 12.6359 15.7161 13.3224 16.6843C13.4984 16.9483 13.692 17.2123 13.9561 17.3884C14.2553 17.5996 14.4841 17.5292 14.625 17.1947C14.713 16.9835 14.7482 16.7547 14.7658 16.5434C14.8362 15.7689 14.8362 14.9944 14.7306 14.2375C14.6602 13.7622 14.3961 13.4454 13.9033 13.3574C13.6568 13.3046 13.692 13.2166 13.8152 13.0757C14.0265 12.8293 14.2201 12.6885 14.5897 12.6885H17.4766C17.9342 12.7765 18.0398 12.9877 18.0927 13.4454V16.649C18.0927 16.8251 18.1807 17.3531 18.4975 17.4764C18.7439 17.5644 18.92 17.3531 19.0784 17.1947C19.7649 16.4554 20.2578 15.5929 20.6978 14.6952C20.8915 14.3079 21.0675 13.8854 21.2259 13.4806C21.3491 13.1813 21.5427 13.0229 21.8772 13.0405H24.6584C24.7464 13.0405 24.8168 13.0405 24.9048 13.0581C25.3801 13.1461 25.5033 13.3398 25.3625 13.7974C25.1337 14.5191 24.6936 15.1176 24.2535 15.7161C23.7959 16.3498 23.303 16.9835 22.8277 17.6172C22.4229 18.1981 22.4581 18.4973 22.9862 19.0078Z" fill="black"/>
</svg>
